<svg width="239" height="23" viewBox="0 0 239 23" fill="none" xmlns="http://www.w3.org/2000/svg">
<mask id="path-1-outside-1_91_804" maskUnits="userSpaceOnUse" x="0" y="-0.0493164" width="239" height="23" fill="black">
<rect fill="white" y="-0.0493164" width="239" height="23"/>
<path fill-rule="evenodd" clip-rule="evenodd" d="M235.154 1.50821L235.517 6.32758L235.021 6.33703C234.837 5.51968 234.526 4.84191 234.09 4.30862C233.655 3.77025 233.026 3.30194 232.207 2.893C231.526 2.54921 230.728 2.30998 229.805 2.17109C228.882 2.02591 227.656 1.95603 226.126 1.95603H221.169V10.7222H222.47C223.784 10.7222 224.774 10.6632 225.44 10.5483C226.097 10.4282 226.644 10.2198 227.057 9.92048C227.464 9.63606 227.767 9.30225 227.959 8.91853C228.15 8.53516 228.314 7.96649 228.446 7.21919L228.941 7.23443L228.853 15.0535H228.358C228.225 14.306 228.04 13.7032 227.781 13.2444C227.53 12.7859 227.183 12.3967 226.732 12.0778C226.304 11.7645 225.735 11.535 225.048 11.3909C224.353 11.2459 223.474 11.1713 222.403 11.1713H221.169V14.5151C221.169 15.8509 221.221 16.8222 221.325 17.4306C221.42 18.0389 221.619 18.5471 221.908 18.9606C222.395 19.6582 223.142 20.1717 224.147 20.5002C225.151 20.8244 226.474 20.9888 228.121 20.9888C229.851 20.9888 231.305 20.8398 232.472 20.5449C233.64 20.2466 234.592 19.7878 235.332 19.1653C235.849 18.7459 236.27 18.2676 236.595 17.7299C236.92 17.1968 237.223 16.4887 237.495 15.6117L237.991 15.6269L237.711 21.4374H211.891V21.103C212.71 21.0738 213.383 20.9994 213.892 20.8696C214.402 20.7447 214.86 20.5405 215.267 20.2566C215.71 19.9473 216.02 19.5485 216.183 19.065C216.353 18.5865 216.434 17.8492 216.434 16.8525V6.09272C216.434 5.09638 216.353 4.35818 216.183 3.87971C216.02 3.39687 215.71 2.99826 215.267 2.68879C214.875 2.4049 214.424 2.20069 213.914 2.076C213.404 1.9464 212.725 1.87196 211.891 1.84202V1.50821H235.154ZM183.838 4.14907V16.8525C183.838 17.8588 183.92 18.597 184.09 19.0755C184.253 19.5485 184.563 19.9473 185.006 20.2566C185.413 20.5405 185.871 20.7447 186.381 20.8696C186.889 20.9994 187.562 21.0738 188.382 21.103V21.4374H178.409V21.103C179.228 21.0738 179.894 20.9994 180.411 20.8696C180.921 20.7447 181.379 20.5405 181.785 20.2566C182.229 19.9473 182.538 19.5485 182.701 19.065C182.871 18.5865 182.952 17.8492 182.952 16.8525V6.07766C182.952 5.09112 182.871 4.35818 182.701 3.87971C182.538 3.39687 182.229 2.99826 181.785 2.68879C181.393 2.4049 180.943 2.20069 180.433 2.076C179.916 1.9464 179.243 1.87196 178.409 1.84202V1.50821H186.742L204.31 16.6331V6.09272C204.31 5.08675 204.229 4.34855 204.059 3.87008C203.896 3.39687 203.586 2.99826 203.143 2.68879C202.736 2.4049 202.278 2.20069 201.769 2.076C201.259 1.9464 200.587 1.87196 199.766 1.84202V1.50821H209.74V1.84202C208.299 1.84202 207.177 2.12643 206.364 2.68879C205.92 2.99826 205.611 3.39687 205.448 3.87971C205.279 4.35818 205.196 5.09112 205.196 6.07766V21.4374H204.221L183.838 4.14907ZM148.71 11.824C148.71 14.6495 149.847 17.032 152.13 18.9708C153.157 19.8382 154.244 20.4652 155.388 20.8594C156.533 21.2529 157.856 21.4526 159.363 21.4526C160.876 21.4526 162.208 21.2582 163.352 20.8696C164.497 20.4804 165.59 19.8426 166.632 18.9708C168.915 17.022 170.053 14.6197 170.053 11.7645C170.053 10.1947 169.742 8.71432 169.115 7.31411C168.486 5.91829 167.6 4.7328 166.462 3.75537C165.538 2.95798 164.504 2.3753 163.374 2.01155C162.243 1.64797 160.907 1.46302 159.363 1.46302C157.834 1.46302 156.504 1.64219 155.388 2.00156C154.272 2.3655 153.231 2.94799 152.278 3.75537C151.14 4.72176 150.262 5.90393 149.64 7.30886C149.02 8.70907 148.71 10.2145 148.71 11.824ZM143.479 11.6046C143.479 9.96951 143.996 8.45022 145.038 7.05509C146.072 5.65453 147.587 4.43787 149.582 3.39687C151.066 2.62452 152.67 2.03572 154.383 1.62257C156.098 1.2089 157.834 0.999966 159.576 0.999966C161.801 0.999966 163.943 1.32905 166.026 1.9865C168.102 2.64414 169.92 3.5713 171.478 4.7673C174.013 6.71568 175.284 8.92851 175.284 11.4149C175.284 12.6613 174.951 13.8628 174.286 15.0232C173.621 16.18 172.66 17.2362 171.39 18.1932C169.831 19.3795 167.992 20.3013 165.864 20.9536C163.736 21.6069 161.505 21.9311 159.186 21.9311C156.895 21.9311 154.701 21.6121 152.61 20.9785C150.52 20.3459 148.717 19.4536 147.203 18.2925C146.006 17.3856 145.083 16.3591 144.44 15.2029C143.797 14.0521 143.479 12.8501 143.479 11.6046ZM123.716 1.95603C122.808 1.95603 121.833 1.97652 120.791 2.01593C118.575 2.09141 116.913 2.28055 115.827 2.58424C114.733 2.8888 113.84 3.4065 113.13 4.14907C112.479 4.82685 111.985 5.75384 111.637 6.91971L111.142 6.89589L111.527 1.50821H140.811L141.196 6.89589L140.701 6.91971C140.309 5.56959 139.704 4.5426 138.868 3.85047C138.041 3.15185 136.837 2.65377 135.249 2.35026C133.905 2.08615 131.636 1.95603 128.43 1.95603V16.8525C128.43 17.8443 128.511 18.5816 128.681 19.065C128.843 19.5485 129.154 19.9473 129.597 20.2566C130.004 20.5405 130.462 20.7447 130.971 20.8696C131.481 20.9994 132.153 21.0738 132.974 21.103V21.4374H119.151V21.103C119.985 21.0738 120.665 20.9994 121.175 20.8696C121.685 20.7447 122.143 20.5405 122.549 20.2566C122.992 19.9473 123.303 19.5485 123.465 19.0755C123.635 18.597 123.716 17.8544 123.716 16.8525V1.95603ZM90.1548 21.398L90.221 15.3672L90.7165 15.3625C91.3221 16.9019 92.0463 18.1133 92.8803 19.0005C94.4544 20.64 96.4345 21.4572 98.8133 21.4572C100.475 21.4572 101.849 21.0834 102.928 20.331C104.013 19.5837 104.553 18.632 104.553 17.4807C104.553 16.987 104.434 16.4793 104.198 15.9656C103.955 15.4469 103.637 15.0034 103.231 14.6351C102.817 14.2509 102.226 13.8868 101.465 13.5384C100.712 13.1845 99.5519 12.741 97.9923 12.2079C96.6257 11.7393 95.5698 11.3457 94.846 11.0214C94.1144 10.7026 93.5309 10.3739 93.0798 10.045C91.8389 9.12746 91.2184 8.01203 91.2184 6.70114C91.2184 5.88851 91.4619 5.11074 91.9424 4.35818C92.43 3.61071 93.1022 2.96848 93.9666 2.42994C95.4956 1.47844 97.3056 0.999966 99.3964 0.999966C100.076 0.999966 100.705 1.04463 101.28 1.13885C101.856 1.22869 102.632 1.41311 103.592 1.68737C104.316 1.88142 104.805 2.00629 105.071 2.05621C105.329 2.11102 105.558 2.13607 105.757 2.13607C106.267 2.13607 106.607 1.89158 106.777 1.39332H107.271L107.427 7.18924H106.931C106.541 6.26225 106.208 5.55418 105.927 5.06608C105.647 4.57325 105.307 4.11457 104.923 3.69617C104.214 2.93819 103.438 2.3753 102.58 2.01155C101.731 1.64797 100.749 1.46302 99.6408 1.46302C98.0298 1.46302 96.752 1.83151 95.8129 2.57425C95.4224 2.87829 95.1194 3.23224 94.8898 3.64136C94.668 4.04977 94.5577 4.45836 94.5577 4.8673C94.5577 6.49658 96.1091 7.80712 99.2119 8.79838L102.263 9.7956C104.613 10.5431 106.305 11.3702 107.346 12.2776C108.528 13.2941 109.119 14.4705 109.119 15.8159C109.119 16.7131 108.853 17.5706 108.321 18.3876C107.567 19.5237 106.444 20.406 104.938 21.0233C103.438 21.6414 101.672 21.9507 99.6331 21.9507C97.7709 21.9507 95.9828 21.7016 94.2619 21.2083C93.3679 20.9437 92.8365 20.7941 92.6663 20.7547C92.4887 20.7144 92.2972 20.6948 92.0755 20.6948C91.3885 20.6948 90.9079 20.9291 90.649 21.398H90.1548ZM67.0529 21.4374H80.8826V21.103C79.4124 21.103 78.2752 20.8191 77.4771 20.2566C77.0188 19.9377 76.7093 19.5485 76.5607 19.0951C76.4064 18.6417 76.3321 17.8939 76.3321 16.8525V13.2743C76.3321 12.6065 76.3987 12.1282 76.5246 11.8443C76.6575 11.5646 77.0188 11.121 77.6099 10.518L82.5522 5.43509C83.7489 4.19863 84.8354 3.26674 85.8183 2.64413C86.239 2.38966 86.6456 2.2105 87.0518 2.09561C87.4504 1.9865 88.0334 1.90156 88.7802 1.84202V1.50821H78.8213V1.84202C79.893 1.84202 80.7271 2.01155 81.3184 2.35464C81.9095 2.69405 82.2054 3.17742 82.2054 3.80003C82.2054 4.34365 81.9399 4.89655 81.4005 5.46486L80.8389 6.0633L75.8153 11.3505L69.9491 5.1554C69.5505 4.72754 69.2542 4.37342 69.0775 4.0897C68.8927 3.81054 68.8037 3.55641 68.8037 3.33207C68.8037 2.71909 69.2104 2.29544 70.0153 2.06111C70.3484 1.96128 71.1162 1.89158 72.3129 1.84202V1.50821H58.2019V1.84202C58.8449 1.86163 59.3549 1.90156 59.7174 1.95603C60.0789 2.01592 60.4333 2.12118 60.7957 2.26532C61.5053 2.53958 62.2292 3.04292 62.9595 3.78549L63.9574 4.80723L69.5649 10.4884C70.4146 11.3557 70.9756 12.0734 71.2493 12.6459C71.4933 13.1451 71.6185 13.5985 71.6185 14.0069L71.5968 16.8525C71.5968 17.8588 71.5148 18.597 71.3605 19.0755C71.1975 19.5485 70.8945 19.9473 70.4507 20.2566C70.0446 20.5405 69.5873 20.7447 69.0629 20.8696C68.5451 20.9994 67.8727 21.0738 67.0529 21.103V21.4374ZM55.6464 1.50821L56.0089 6.32758L55.5138 6.33703C55.329 5.51968 55.0183 4.84191 54.5828 4.30862C54.1469 3.77025 53.5186 3.30194 52.699 2.893C52.0191 2.54921 51.221 2.30998 50.2976 2.17109C49.3748 2.02591 48.1488 1.95603 46.6185 1.95603H41.6616V10.7222H42.962C44.2771 10.7222 45.2668 10.6632 45.9318 10.5483C46.5892 10.4282 47.1365 10.2198 47.5497 9.92048C47.9562 9.63606 48.2588 9.30225 48.4513 8.91853C48.6429 8.53516 48.8061 7.96649 48.9392 7.21919L49.4334 7.23443L49.3454 15.0535H48.8499C48.7173 14.306 48.5324 13.7032 48.2737 13.2444C48.0226 12.7859 47.6758 12.3967 47.2245 12.0778C46.7966 11.7645 46.2267 11.535 45.5402 11.3909C44.8458 11.2459 43.9666 11.1713 42.8957 11.1713H41.6616V14.5151C41.6616 15.8509 41.7135 16.8222 41.8172 17.4306C41.9128 18.0389 42.1121 18.5471 42.4002 18.9606C42.8876 19.6582 43.6342 20.1717 44.6397 20.5002C45.6437 20.8244 46.9667 20.9888 48.6136 20.9888C50.3427 20.9888 51.7972 20.8398 52.965 20.5449C54.1323 20.2466 55.0847 19.7878 55.8245 19.1653C56.3411 18.7459 56.7623 18.2676 57.0877 17.7299C57.413 17.1968 57.7159 16.4887 57.9883 15.6117L58.4837 15.6269L58.2032 21.4374H32.383V21.103C33.2024 21.0738 33.876 20.9994 34.3846 20.8696C34.8944 20.7447 35.3526 20.5405 35.7592 20.2566C36.2029 19.9473 36.5123 19.5485 36.6754 19.065C36.8454 18.5865 36.9265 17.8492 36.9265 16.8525V6.09272C36.9265 5.09638 36.8454 4.35818 36.6754 3.87971C36.5123 3.39687 36.2029 2.99826 35.7592 2.68879C35.3675 2.4049 34.917 2.20069 34.4072 2.076C33.8972 1.9464 33.2173 1.87196 32.383 1.84202V1.50821H55.6464ZM10.2787 11.276L19.4395 5.14104C20.3561 4.53822 20.9179 4.12946 21.1465 3.90984C21.3679 3.69039 21.4784 3.44678 21.4784 3.18705C21.4784 2.70858 21.1316 2.35026 20.4368 2.10577C20.0743 1.9865 19.4689 1.90156 18.6198 1.84202V1.50821H27.943V1.84202C27.3076 1.88142 26.7753 1.95165 26.354 2.05095C25.9266 2.15586 25.4604 2.33064 24.9581 2.57425C24.3963 2.84414 23.4294 3.42191 22.0626 4.30862L15.0442 8.85408L25.0245 17.4359L26.2585 18.5019C27.1669 19.2646 28.1129 19.8578 29.0954 20.286C29.6864 20.5501 30.2033 20.7349 30.6535 20.8493C31.0973 20.9589 31.659 21.044 32.339 21.103V21.4374H18.0354V21.103C19.1141 21.044 19.8976 20.9239 20.3706 20.7394C20.8503 20.5549 21.0866 20.2815 21.0866 19.9223C21.0866 19.5333 20.7917 19.0352 20.2006 18.4322C19.9125 18.1382 19.3652 17.6348 18.5748 16.9124C17.7781 16.1896 17.1126 15.6064 16.5583 15.1582L11.6896 11.0863L10.2787 12.0186V16.8525C10.2787 17.8492 10.3597 18.5865 10.5298 19.065C10.693 19.5485 11.0028 19.9473 11.4463 20.2566C11.8382 20.5305 12.2887 20.7296 12.8053 20.8638C13.3153 20.9941 13.9871 21.0738 14.8294 21.103V21.4374H1V21.103C1.83434 21.0738 2.50739 20.9941 3.02421 20.8638C3.53403 20.7296 3.98447 20.5305 4.37625 20.2566C4.83423 19.9473 5.14422 19.5485 5.30727 19.0755C5.46279 18.597 5.54353 17.8588 5.54353 16.8525V6.09272C5.54353 5.08675 5.46279 4.34855 5.30727 3.87008C5.14422 3.39687 4.83423 2.99826 4.37625 2.68879C3.98447 2.4049 3.53403 2.20069 3.00967 2.076C2.49285 1.9464 1.81946 1.87196 1 1.84202V1.50821H14.8294V1.84202C14.002 1.87196 13.3377 1.9464 12.8199 2.076C12.3111 2.20069 11.8526 2.4049 11.4463 2.68879C11.0028 2.99826 10.693 3.39687 10.5298 3.87971C10.3597 4.35818 10.2787 5.09638 10.2787 6.09272V11.276Z"/>
</mask>
<path fill-rule="evenodd" clip-rule="evenodd" d="M235.154 1.50821L235.517 6.32758L235.021 6.33703C234.837 5.51968 234.526 4.84191 234.09 4.30862C233.655 3.77025 233.026 3.30194 232.207 2.893C231.526 2.54921 230.728 2.30998 229.805 2.17109C228.882 2.02591 227.656 1.95603 226.126 1.95603H221.169V10.7222H222.47C223.784 10.7222 224.774 10.6632 225.44 10.5483C226.097 10.4282 226.644 10.2198 227.057 9.92048C227.464 9.63606 227.767 9.30225 227.959 8.91853C228.15 8.53516 228.314 7.96649 228.446 7.21919L228.941 7.23443L228.853 15.0535H228.358C228.225 14.306 228.04 13.7032 227.781 13.2444C227.53 12.7859 227.183 12.3967 226.732 12.0778C226.304 11.7645 225.735 11.535 225.048 11.3909C224.353 11.2459 223.474 11.1713 222.403 11.1713H221.169V14.5151C221.169 15.8509 221.221 16.8222 221.325 17.4306C221.42 18.0389 221.619 18.5471 221.908 18.9606C222.395 19.6582 223.142 20.1717 224.147 20.5002C225.151 20.8244 226.474 20.9888 228.121 20.9888C229.851 20.9888 231.305 20.8398 232.472 20.5449C233.64 20.2466 234.592 19.7878 235.332 19.1653C235.849 18.7459 236.27 18.2676 236.595 17.7299C236.92 17.1968 237.223 16.4887 237.495 15.6117L237.991 15.6269L237.711 21.4374H211.891V21.103C212.71 21.0738 213.383 20.9994 213.892 20.8696C214.402 20.7447 214.86 20.5405 215.267 20.2566C215.71 19.9473 216.02 19.5485 216.183 19.065C216.353 18.5865 216.434 17.8492 216.434 16.8525V6.09272C216.434 5.09638 216.353 4.35818 216.183 3.87971C216.02 3.39687 215.71 2.99826 215.267 2.68879C214.875 2.4049 214.424 2.20069 213.914 2.076C213.404 1.9464 212.725 1.87196 211.891 1.84202V1.50821H235.154ZM183.838 4.14907V16.8525C183.838 17.8588 183.92 18.597 184.09 19.0755C184.253 19.5485 184.563 19.9473 185.006 20.2566C185.413 20.5405 185.871 20.7447 186.381 20.8696C186.889 20.9994 187.562 21.0738 188.382 21.103V21.4374H178.409V21.103C179.228 21.0738 179.894 20.9994 180.411 20.8696C180.921 20.7447 181.379 20.5405 181.785 20.2566C182.229 19.9473 182.538 19.5485 182.701 19.065C182.871 18.5865 182.952 17.8492 182.952 16.8525V6.07766C182.952 5.09112 182.871 4.35818 182.701 3.87971C182.538 3.39687 182.229 2.99826 181.785 2.68879C181.393 2.4049 180.943 2.20069 180.433 2.076C179.916 1.9464 179.243 1.87196 178.409 1.84202V1.50821H186.742L204.31 16.6331V6.09272C204.31 5.08675 204.229 4.34855 204.059 3.87008C203.896 3.39687 203.586 2.99826 203.143 2.68879C202.736 2.4049 202.278 2.20069 201.769 2.076C201.259 1.9464 200.587 1.87196 199.766 1.84202V1.50821H209.74V1.84202C208.299 1.84202 207.177 2.12643 206.364 2.68879C205.92 2.99826 205.611 3.39687 205.448 3.87971C205.279 4.35818 205.196 5.09112 205.196 6.07766V21.4374H204.221L183.838 4.14907ZM148.71 11.824C148.71 14.6495 149.847 17.032 152.13 18.9708C153.157 19.8382 154.244 20.4652 155.388 20.8594C156.533 21.2529 157.856 21.4526 159.363 21.4526C160.876 21.4526 162.208 21.2582 163.352 20.8696C164.497 20.4804 165.59 19.8426 166.632 18.9708C168.915 17.022 170.053 14.6197 170.053 11.7645C170.053 10.1947 169.742 8.71432 169.115 7.31411C168.486 5.91829 167.6 4.7328 166.462 3.75537C165.538 2.95798 164.504 2.3753 163.374 2.01155C162.243 1.64797 160.907 1.46302 159.363 1.46302C157.834 1.46302 156.504 1.64219 155.388 2.00156C154.272 2.3655 153.231 2.94799 152.278 3.75537C151.14 4.72176 150.262 5.90393 149.64 7.30886C149.02 8.70907 148.71 10.2145 148.71 11.824ZM143.479 11.6046C143.479 9.96951 143.996 8.45022 145.038 7.05509C146.072 5.65453 147.587 4.43787 149.582 3.39687C151.066 2.62452 152.67 2.03572 154.383 1.62257C156.098 1.2089 157.834 0.999966 159.576 0.999966C161.801 0.999966 163.943 1.32905 166.026 1.9865C168.102 2.64414 169.92 3.5713 171.478 4.7673C174.013 6.71568 175.284 8.92851 175.284 11.4149C175.284 12.6613 174.951 13.8628 174.286 15.0232C173.621 16.18 172.66 17.2362 171.39 18.1932C169.831 19.3795 167.992 20.3013 165.864 20.9536C163.736 21.6069 161.505 21.9311 159.186 21.9311C156.895 21.9311 154.701 21.6121 152.61 20.9785C150.52 20.3459 148.717 19.4536 147.203 18.2925C146.006 17.3856 145.083 16.3591 144.44 15.2029C143.797 14.0521 143.479 12.8501 143.479 11.6046ZM123.716 1.95603C122.808 1.95603 121.833 1.97652 120.791 2.01593C118.575 2.09141 116.913 2.28055 115.827 2.58424C114.733 2.8888 113.84 3.4065 113.13 4.14907C112.479 4.82685 111.985 5.75384 111.637 6.91971L111.142 6.89589L111.527 1.50821H140.811L141.196 6.89589L140.701 6.91971C140.309 5.56959 139.704 4.5426 138.868 3.85047C138.041 3.15185 136.837 2.65377 135.249 2.35026C133.905 2.08615 131.636 1.95603 128.43 1.95603V16.8525C128.43 17.8443 128.511 18.5816 128.681 19.065C128.843 19.5485 129.154 19.9473 129.597 20.2566C130.004 20.5405 130.462 20.7447 130.971 20.8696C131.481 20.9994 132.153 21.0738 132.974 21.103V21.4374H119.151V21.103C119.985 21.0738 120.665 20.9994 121.175 20.8696C121.685 20.7447 122.143 20.5405 122.549 20.2566C122.992 19.9473 123.303 19.5485 123.465 19.0755C123.635 18.597 123.716 17.8544 123.716 16.8525V1.95603ZM90.1548 21.398L90.221 15.3672L90.7165 15.3625C91.3221 16.9019 92.0463 18.1133 92.8803 19.0005C94.4544 20.64 96.4345 21.4572 98.8133 21.4572C100.475 21.4572 101.849 21.0834 102.928 20.331C104.013 19.5837 104.553 18.632 104.553 17.4807C104.553 16.987 104.434 16.4793 104.198 15.9656C103.955 15.4469 103.637 15.0034 103.231 14.6351C102.817 14.2509 102.226 13.8868 101.465 13.5384C100.712 13.1845 99.5519 12.741 97.9923 12.2079C96.6257 11.7393 95.5698 11.3457 94.846 11.0214C94.1144 10.7026 93.5309 10.3739 93.0798 10.045C91.8389 9.12746 91.2184 8.01203 91.2184 6.70114C91.2184 5.88851 91.4619 5.11074 91.9424 4.35818C92.43 3.61071 93.1022 2.96848 93.9666 2.42994C95.4956 1.47844 97.3056 0.999966 99.3964 0.999966C100.076 0.999966 100.705 1.04463 101.28 1.13885C101.856 1.22869 102.632 1.41311 103.592 1.68737C104.316 1.88142 104.805 2.00629 105.071 2.05621C105.329 2.11102 105.558 2.13607 105.757 2.13607C106.267 2.13607 106.607 1.89158 106.777 1.39332H107.271L107.427 7.18924H106.931C106.541 6.26225 106.208 5.55418 105.927 5.06608C105.647 4.57325 105.307 4.11457 104.923 3.69617C104.214 2.93819 103.438 2.3753 102.58 2.01155C101.731 1.64797 100.749 1.46302 99.6408 1.46302C98.0298 1.46302 96.752 1.83151 95.8129 2.57425C95.4224 2.87829 95.1194 3.23224 94.8898 3.64136C94.668 4.04977 94.5577 4.45836 94.5577 4.8673C94.5577 6.49658 96.1091 7.80712 99.2119 8.79838L102.263 9.7956C104.613 10.5431 106.305 11.3702 107.346 12.2776C108.528 13.2941 109.119 14.4705 109.119 15.8159C109.119 16.7131 108.853 17.5706 108.321 18.3876C107.567 19.5237 106.444 20.406 104.938 21.0233C103.438 21.6414 101.672 21.9507 99.6331 21.9507C97.7709 21.9507 95.9828 21.7016 94.2619 21.2083C93.3679 20.9437 92.8365 20.7941 92.6663 20.7547C92.4887 20.7144 92.2972 20.6948 92.0755 20.6948C91.3885 20.6948 90.9079 20.9291 90.649 21.398H90.1548ZM67.0529 21.4374H80.8826V21.103C79.4124 21.103 78.2752 20.8191 77.4771 20.2566C77.0188 19.9377 76.7093 19.5485 76.5607 19.0951C76.4064 18.6417 76.3321 17.8939 76.3321 16.8525V13.2743C76.3321 12.6065 76.3987 12.1282 76.5246 11.8443C76.6575 11.5646 77.0188 11.121 77.6099 10.518L82.5522 5.43509C83.7489 4.19863 84.8354 3.26674 85.8183 2.64413C86.239 2.38966 86.6456 2.2105 87.0518 2.09561C87.4504 1.9865 88.0334 1.90156 88.7802 1.84202V1.50821H78.8213V1.84202C79.893 1.84202 80.7271 2.01155 81.3184 2.35464C81.9095 2.69405 82.2054 3.17742 82.2054 3.80003C82.2054 4.34365 81.9399 4.89655 81.4005 5.46486L80.8389 6.0633L75.8153 11.3505L69.9491 5.1554C69.5505 4.72754 69.2542 4.37342 69.0775 4.0897C68.8927 3.81054 68.8037 3.55641 68.8037 3.33207C68.8037 2.71909 69.2104 2.29544 70.0153 2.06111C70.3484 1.96128 71.1162 1.89158 72.3129 1.84202V1.50821H58.2019V1.84202C58.8449 1.86163 59.3549 1.90156 59.7174 1.95603C60.0789 2.01592 60.4333 2.12118 60.7957 2.26532C61.5053 2.53958 62.2292 3.04292 62.9595 3.78549L63.9574 4.80723L69.5649 10.4884C70.4146 11.3557 70.9756 12.0734 71.2493 12.6459C71.4933 13.1451 71.6185 13.5985 71.6185 14.0069L71.5968 16.8525C71.5968 17.8588 71.5148 18.597 71.3605 19.0755C71.1975 19.5485 70.8945 19.9473 70.4507 20.2566C70.0446 20.5405 69.5873 20.7447 69.0629 20.8696C68.5451 20.9994 67.8727 21.0738 67.0529 21.103V21.4374ZM55.6464 1.50821L56.0089 6.32758L55.5138 6.33703C55.329 5.51968 55.0183 4.84191 54.5828 4.30862C54.1469 3.77025 53.5186 3.30194 52.699 2.893C52.0191 2.54921 51.221 2.30998 50.2976 2.17109C49.3748 2.02591 48.1488 1.95603 46.6185 1.95603H41.6616V10.7222H42.962C44.2771 10.7222 45.2668 10.6632 45.9318 10.5483C46.5892 10.4282 47.1365 10.2198 47.5497 9.92048C47.9562 9.63606 48.2588 9.30225 48.4513 8.91853C48.6429 8.53516 48.8061 7.96649 48.9392 7.21919L49.4334 7.23443L49.3454 15.0535H48.8499C48.7173 14.306 48.5324 13.7032 48.2737 13.2444C48.0226 12.7859 47.6758 12.3967 47.2245 12.0778C46.7966 11.7645 46.2267 11.535 45.5402 11.3909C44.8458 11.2459 43.9666 11.1713 42.8957 11.1713H41.6616V14.5151C41.6616 15.8509 41.7135 16.8222 41.8172 17.4306C41.9128 18.0389 42.1121 18.5471 42.4002 18.9606C42.8876 19.6582 43.6342 20.1717 44.6397 20.5002C45.6437 20.8244 46.9667 20.9888 48.6136 20.9888C50.3427 20.9888 51.7972 20.8398 52.965 20.5449C54.1323 20.2466 55.0847 19.7878 55.8245 19.1653C56.3411 18.7459 56.7623 18.2676 57.0877 17.7299C57.413 17.1968 57.7159 16.4887 57.9883 15.6117L58.4837 15.6269L58.2032 21.4374H32.383V21.103C33.2024 21.0738 33.876 20.9994 34.3846 20.8696C34.8944 20.7447 35.3526 20.5405 35.7592 20.2566C36.2029 19.9473 36.5123 19.5485 36.6754 19.065C36.8454 18.5865 36.9265 17.8492 36.9265 16.8525V6.09272C36.9265 5.09638 36.8454 4.35818 36.6754 3.87971C36.5123 3.39687 36.2029 2.99826 35.7592 2.68879C35.3675 2.4049 34.917 2.20069 34.4072 2.076C33.8972 1.9464 33.2173 1.87196 32.383 1.84202V1.50821H55.6464ZM10.2787 11.276L19.4395 5.14104C20.3561 4.53822 20.9179 4.12946 21.1465 3.90984C21.3679 3.69039 21.4784 3.44678 21.4784 3.18705C21.4784 2.70858 21.1316 2.35026 20.4368 2.10577C20.0743 1.9865 19.4689 1.90156 18.6198 1.84202V1.50821H27.943V1.84202C27.3076 1.88142 26.7753 1.95165 26.354 2.05095C25.9266 2.15586 25.4604 2.33064 24.9581 2.57425C24.3963 2.84414 23.4294 3.42191 22.0626 4.30862L15.0442 8.85408L25.0245 17.4359L26.2585 18.5019C27.1669 19.2646 28.1129 19.8578 29.0954 20.286C29.6864 20.5501 30.2033 20.7349 30.6535 20.8493C31.0973 20.9589 31.659 21.044 32.339 21.103V21.4374H18.0354V21.103C19.1141 21.044 19.8976 20.9239 20.3706 20.7394C20.8503 20.5549 21.0866 20.2815 21.0866 19.9223C21.0866 19.5333 20.7917 19.0352 20.2006 18.4322C19.9125 18.1382 19.3652 17.6348 18.5748 16.9124C17.7781 16.1896 17.1126 15.6064 16.5583 15.1582L11.6896 11.0863L10.2787 12.0186V16.8525C10.2787 17.8492 10.3597 18.5865 10.5298 19.065C10.693 19.5485 11.0028 19.9473 11.4463 20.2566C11.8382 20.5305 12.2887 20.7296 12.8053 20.8638C13.3153 20.9941 13.9871 21.0738 14.8294 21.103V21.4374H1V21.103C1.83434 21.0738 2.50739 20.9941 3.02421 20.8638C3.53403 20.7296 3.98447 20.5305 4.37625 20.2566C4.83423 19.9473 5.14422 19.5485 5.30727 19.0755C5.46279 18.597 5.54353 17.8588 5.54353 16.8525V6.09272C5.54353 5.08675 5.46279 4.34855 5.30727 3.87008C5.14422 3.39687 4.83423 2.99826 4.37625 2.68879C3.98447 2.4049 3.53403 2.20069 3.00967 2.076C2.49285 1.9464 1.81946 1.87196 1 1.84202V1.50821H14.8294V1.84202C14.002 1.87196 13.3377 1.9464 12.8199 2.076C12.3111 2.20069 11.8526 2.4049 11.4463 2.68879C11.0028 2.99826 10.693 3.39687 10.5298 3.87971C10.3597 4.35818 10.2787 5.09638 10.2787 6.09272V11.276Z" fill="white"/>
<path fill-rule="evenodd" clip-rule="evenodd" d="M235.154 1.50821L235.517 6.32758L235.021 6.33703C234.837 5.51968 234.526 4.84191 234.09 4.30862C233.655 3.77025 233.026 3.30194 232.207 2.893C231.526 2.54921 230.728 2.30998 229.805 2.17109C228.882 2.02591 227.656 1.95603 226.126 1.95603H221.169V10.7222H222.47C223.784 10.7222 224.774 10.6632 225.44 10.5483C226.097 10.4282 226.644 10.2198 227.057 9.92048C227.464 9.63606 227.767 9.30225 227.959 8.91853C228.15 8.53516 228.314 7.96649 228.446 7.21919L228.941 7.23443L228.853 15.0535H228.358C228.225 14.306 228.04 13.7032 227.781 13.2444C227.53 12.7859 227.183 12.3967 226.732 12.0778C226.304 11.7645 225.735 11.535 225.048 11.3909C224.353 11.2459 223.474 11.1713 222.403 11.1713H221.169V14.5151C221.169 15.8509 221.221 16.8222 221.325 17.4306C221.42 18.0389 221.619 18.5471 221.908 18.9606C222.395 19.6582 223.142 20.1717 224.147 20.5002C225.151 20.8244 226.474 20.9888 228.121 20.9888C229.851 20.9888 231.305 20.8398 232.472 20.5449C233.64 20.2466 234.592 19.7878 235.332 19.1653C235.849 18.7459 236.27 18.2676 236.595 17.7299C236.92 17.1968 237.223 16.4887 237.495 15.6117L237.991 15.6269L237.711 21.4374H211.891V21.103C212.71 21.0738 213.383 20.9994 213.892 20.8696C214.402 20.7447 214.86 20.5405 215.267 20.2566C215.71 19.9473 216.02 19.5485 216.183 19.065C216.353 18.5865 216.434 17.8492 216.434 16.8525V6.09272C216.434 5.09638 216.353 4.35818 216.183 3.87971C216.02 3.39687 215.71 2.99826 215.267 2.68879C214.875 2.4049 214.424 2.20069 213.914 2.076C213.404 1.9464 212.725 1.87196 211.891 1.84202V1.50821H235.154ZM183.838 4.14907V16.8525C183.838 17.8588 183.92 18.597 184.09 19.0755C184.253 19.5485 184.563 19.9473 185.006 20.2566C185.413 20.5405 185.871 20.7447 186.381 20.8696C186.889 20.9994 187.562 21.0738 188.382 21.103V21.4374H178.409V21.103C179.228 21.0738 179.894 20.9994 180.411 20.8696C180.921 20.7447 181.379 20.5405 181.785 20.2566C182.229 19.9473 182.538 19.5485 182.701 19.065C182.871 18.5865 182.952 17.8492 182.952 16.8525V6.07766C182.952 5.09112 182.871 4.35818 182.701 3.87971C182.538 3.39687 182.229 2.99826 181.785 2.68879C181.393 2.4049 180.943 2.20069 180.433 2.076C179.916 1.9464 179.243 1.87196 178.409 1.84202V1.50821H186.742L204.31 16.6331V6.09272C204.31 5.08675 204.229 4.34855 204.059 3.87008C203.896 3.39687 203.586 2.99826 203.143 2.68879C202.736 2.4049 202.278 2.20069 201.769 2.076C201.259 1.9464 200.587 1.87196 199.766 1.84202V1.50821H209.74V1.84202C208.299 1.84202 207.177 2.12643 206.364 2.68879C205.92 2.99826 205.611 3.39687 205.448 3.87971C205.279 4.35818 205.196 5.09112 205.196 6.07766V21.4374H204.221L183.838 4.14907ZM148.71 11.824C148.71 14.6495 149.847 17.032 152.13 18.9708C153.157 19.8382 154.244 20.4652 155.388 20.8594C156.533 21.2529 157.856 21.4526 159.363 21.4526C160.876 21.4526 162.208 21.2582 163.352 20.8696C164.497 20.4804 165.59 19.8426 166.632 18.9708C168.915 17.022 170.053 14.6197 170.053 11.7645C170.053 10.1947 169.742 8.71432 169.115 7.31411C168.486 5.91829 167.6 4.7328 166.462 3.75537C165.538 2.95798 164.504 2.3753 163.374 2.01155C162.243 1.64797 160.907 1.46302 159.363 1.46302C157.834 1.46302 156.504 1.64219 155.388 2.00156C154.272 2.3655 153.231 2.94799 152.278 3.75537C151.14 4.72176 150.262 5.90393 149.64 7.30886C149.02 8.70907 148.71 10.2145 148.71 11.824ZM143.479 11.6046C143.479 9.96951 143.996 8.45022 145.038 7.05509C146.072 5.65453 147.587 4.43787 149.582 3.39687C151.066 2.62452 152.67 2.03572 154.383 1.62257C156.098 1.2089 157.834 0.999966 159.576 0.999966C161.801 0.999966 163.943 1.32905 166.026 1.9865C168.102 2.64414 169.92 3.5713 171.478 4.7673C174.013 6.71568 175.284 8.92851 175.284 11.4149C175.284 12.6613 174.951 13.8628 174.286 15.0232C173.621 16.18 172.66 17.2362 171.39 18.1932C169.831 19.3795 167.992 20.3013 165.864 20.9536C163.736 21.6069 161.505 21.9311 159.186 21.9311C156.895 21.9311 154.701 21.6121 152.61 20.9785C150.52 20.3459 148.717 19.4536 147.203 18.2925C146.006 17.3856 145.083 16.3591 144.44 15.2029C143.797 14.0521 143.479 12.8501 143.479 11.6046ZM123.716 1.95603C122.808 1.95603 121.833 1.97652 120.791 2.01593C118.575 2.09141 116.913 2.28055 115.827 2.58424C114.733 2.8888 113.84 3.4065 113.13 4.14907C112.479 4.82685 111.985 5.75384 111.637 6.91971L111.142 6.89589L111.527 1.50821H140.811L141.196 6.89589L140.701 6.91971C140.309 5.56959 139.704 4.5426 138.868 3.85047C138.041 3.15185 136.837 2.65377 135.249 2.35026C133.905 2.08615 131.636 1.95603 128.43 1.95603V16.8525C128.43 17.8443 128.511 18.5816 128.681 19.065C128.843 19.5485 129.154 19.9473 129.597 20.2566C130.004 20.5405 130.462 20.7447 130.971 20.8696C131.481 20.9994 132.153 21.0738 132.974 21.103V21.4374H119.151V21.103C119.985 21.0738 120.665 20.9994 121.175 20.8696C121.685 20.7447 122.143 20.5405 122.549 20.2566C122.992 19.9473 123.303 19.5485 123.465 19.0755C123.635 18.597 123.716 17.8544 123.716 16.8525V1.95603ZM90.1548 21.398L90.221 15.3672L90.7165 15.3625C91.3221 16.9019 92.0463 18.1133 92.8803 19.0005C94.4544 20.64 96.4345 21.4572 98.8133 21.4572C100.475 21.4572 101.849 21.0834 102.928 20.331C104.013 19.5837 104.553 18.632 104.553 17.4807C104.553 16.987 104.434 16.4793 104.198 15.9656C103.955 15.4469 103.637 15.0034 103.231 14.6351C102.817 14.2509 102.226 13.8868 101.465 13.5384C100.712 13.1845 99.5519 12.741 97.9923 12.2079C96.6257 11.7393 95.5698 11.3457 94.846 11.0214C94.1144 10.7026 93.5309 10.3739 93.0798 10.045C91.8389 9.12746 91.2184 8.01203 91.2184 6.70114C91.2184 5.88851 91.4619 5.11074 91.9424 4.35818C92.43 3.61071 93.1022 2.96848 93.9666 2.42994C95.4956 1.47844 97.3056 0.999966 99.3964 0.999966C100.076 0.999966 100.705 1.04463 101.28 1.13885C101.856 1.22869 102.632 1.41311 103.592 1.68737C104.316 1.88142 104.805 2.00629 105.071 2.05621C105.329 2.11102 105.558 2.13607 105.757 2.13607C106.267 2.13607 106.607 1.89158 106.777 1.39332H107.271L107.427 7.18924H106.931C106.541 6.26225 106.208 5.55418 105.927 5.06608C105.647 4.57325 105.307 4.11457 104.923 3.69617C104.214 2.93819 103.438 2.3753 102.58 2.01155C101.731 1.64797 100.749 1.46302 99.6408 1.46302C98.0298 1.46302 96.752 1.83151 95.8129 2.57425C95.4224 2.87829 95.1194 3.23224 94.8898 3.64136C94.668 4.04977 94.5577 4.45836 94.5577 4.8673C94.5577 6.49658 96.1091 7.80712 99.2119 8.79838L102.263 9.7956C104.613 10.5431 106.305 11.3702 107.346 12.2776C108.528 13.2941 109.119 14.4705 109.119 15.8159C109.119 16.7131 108.853 17.5706 108.321 18.3876C107.567 19.5237 106.444 20.406 104.938 21.0233C103.438 21.6414 101.672 21.9507 99.6331 21.9507C97.7709 21.9507 95.9828 21.7016 94.2619 21.2083C93.3679 20.9437 92.8365 20.7941 92.6663 20.7547C92.4887 20.7144 92.2972 20.6948 92.0755 20.6948C91.3885 20.6948 90.9079 20.9291 90.649 21.398H90.1548ZM67.0529 21.4374H80.8826V21.103C79.4124 21.103 78.2752 20.8191 77.4771 20.2566C77.0188 19.9377 76.7093 19.5485 76.5607 19.0951C76.4064 18.6417 76.3321 17.8939 76.3321 16.8525V13.2743C76.3321 12.6065 76.3987 12.1282 76.5246 11.8443C76.6575 11.5646 77.0188 11.121 77.6099 10.518L82.5522 5.43509C83.7489 4.19863 84.8354 3.26674 85.8183 2.64413C86.239 2.38966 86.6456 2.2105 87.0518 2.09561C87.4504 1.9865 88.0334 1.90156 88.7802 1.84202V1.50821H78.8213V1.84202C79.893 1.84202 80.7271 2.01155 81.3184 2.35464C81.9095 2.69405 82.2054 3.17742 82.2054 3.80003C82.2054 4.34365 81.9399 4.89655 81.4005 5.46486L80.8389 6.0633L75.8153 11.3505L69.9491 5.1554C69.5505 4.72754 69.2542 4.37342 69.0775 4.0897C68.8927 3.81054 68.8037 3.55641 68.8037 3.33207C68.8037 2.71909 69.2104 2.29544 70.0153 2.06111C70.3484 1.96128 71.1162 1.89158 72.3129 1.84202V1.50821H58.2019V1.84202C58.8449 1.86163 59.3549 1.90156 59.7174 1.95603C60.0789 2.01592 60.4333 2.12118 60.7957 2.26532C61.5053 2.53958 62.2292 3.04292 62.9595 3.78549L63.9574 4.80723L69.5649 10.4884C70.4146 11.3557 70.9756 12.0734 71.2493 12.6459C71.4933 13.1451 71.6185 13.5985 71.6185 14.0069L71.5968 16.8525C71.5968 17.8588 71.5148 18.597 71.3605 19.0755C71.1975 19.5485 70.8945 19.9473 70.4507 20.2566C70.0446 20.5405 69.5873 20.7447 69.0629 20.8696C68.5451 20.9994 67.8727 21.0738 67.0529 21.103V21.4374ZM55.6464 1.50821L56.0089 6.32758L55.5138 6.33703C55.329 5.51968 55.0183 4.84191 54.5828 4.30862C54.1469 3.77025 53.5186 3.30194 52.699 2.893C52.0191 2.54921 51.221 2.30998 50.2976 2.17109C49.3748 2.02591 48.1488 1.95603 46.6185 1.95603H41.6616V10.7222H42.962C44.2771 10.7222 45.2668 10.6632 45.9318 10.5483C46.5892 10.4282 47.1365 10.2198 47.5497 9.92048C47.9562 9.63606 48.2588 9.30225 48.4513 8.91853C48.6429 8.53516 48.8061 7.96649 48.9392 7.21919L49.4334 7.23443L49.3454 15.0535H48.8499C48.7173 14.306 48.5324 13.7032 48.2737 13.2444C48.0226 12.7859 47.6758 12.3967 47.2245 12.0778C46.7966 11.7645 46.2267 11.535 45.5402 11.3909C44.8458 11.2459 43.9666 11.1713 42.8957 11.1713H41.6616V14.5151C41.6616 15.8509 41.7135 16.8222 41.8172 17.4306C41.9128 18.0389 42.1121 18.5471 42.4002 18.9606C42.8876 19.6582 43.6342 20.1717 44.6397 20.5002C45.6437 20.8244 46.9667 20.9888 48.6136 20.9888C50.3427 20.9888 51.7972 20.8398 52.965 20.5449C54.1323 20.2466 55.0847 19.7878 55.8245 19.1653C56.3411 18.7459 56.7623 18.2676 57.0877 17.7299C57.413 17.1968 57.7159 16.4887 57.9883 15.6117L58.4837 15.6269L58.2032 21.4374H32.383V21.103C33.2024 21.0738 33.876 20.9994 34.3846 20.8696C34.8944 20.7447 35.3526 20.5405 35.7592 20.2566C36.2029 19.9473 36.5123 19.5485 36.6754 19.065C36.8454 18.5865 36.9265 17.8492 36.9265 16.8525V6.09272C36.9265 5.09638 36.8454 4.35818 36.6754 3.87971C36.5123 3.39687 36.2029 2.99826 35.7592 2.68879C35.3675 2.4049 34.917 2.20069 34.4072 2.076C33.8972 1.9464 33.2173 1.87196 32.383 1.84202V1.50821H55.6464ZM10.2787 11.276L19.4395 5.14104C20.3561 4.53822 20.9179 4.12946 21.1465 3.90984C21.3679 3.69039 21.4784 3.44678 21.4784 3.18705C21.4784 2.70858 21.1316 2.35026 20.4368 2.10577C20.0743 1.9865 19.4689 1.90156 18.6198 1.84202V1.50821H27.943V1.84202C27.3076 1.88142 26.7753 1.95165 26.354 2.05095C25.9266 2.15586 25.4604 2.33064 24.9581 2.57425C24.3963 2.84414 23.4294 3.42191 22.0626 4.30862L15.0442 8.85408L25.0245 17.4359L26.2585 18.5019C27.1669 19.2646 28.1129 19.8578 29.0954 20.286C29.6864 20.5501 30.2033 20.7349 30.6535 20.8493C31.0973 20.9589 31.659 21.044 32.339 21.103V21.4374H18.0354V21.103C19.1141 21.044 19.8976 20.9239 20.3706 20.7394C20.8503 20.5549 21.0866 20.2815 21.0866 19.9223C21.0866 19.5333 20.7917 19.0352 20.2006 18.4322C19.9125 18.1382 19.3652 17.6348 18.5748 16.9124C17.7781 16.1896 17.1126 15.6064 16.5583 15.1582L11.6896 11.0863L10.2787 12.0186V16.8525C10.2787 17.8492 10.3597 18.5865 10.5298 19.065C10.693 19.5485 11.0028 19.9473 11.4463 20.2566C11.8382 20.5305 12.2887 20.7296 12.8053 20.8638C13.3153 20.9941 13.9871 21.0738 14.8294 21.103V21.4374H1V21.103C1.83434 21.0738 2.50739 20.9941 3.02421 20.8638C3.53403 20.7296 3.98447 20.5305 4.37625 20.2566C4.83423 19.9473 5.14422 19.5485 5.30727 19.0755C5.46279 18.597 5.54353 17.8588 5.54353 16.8525V6.09272C5.54353 5.08675 5.46279 4.34855 5.30727 3.87008C5.14422 3.39687 4.83423 2.99826 4.37625 2.68879C3.98447 2.4049 3.53403 2.20069 3.00967 2.076C2.49285 1.9464 1.81946 1.87196 1 1.84202V1.50821H14.8294V1.84202C14.002 1.87196 13.3377 1.9464 12.8199 2.076C12.3111 2.20069 11.8526 2.4049 11.4463 2.68879C11.0028 2.99826 10.693 3.39687 10.5298 3.87971C10.3597 4.35818 10.2787 5.09638 10.2787 6.09272V11.276Z" stroke="white" stroke-width="0.343465" mask="url(#path-1-outside-1_91_804)"/>
</svg>
